# xmcd
#
# Track frame offsets: 
#        150
#        26462
#        49217
#        70083
#        92038
#        128264
#        150411
#        176984
#        196612
#        211469
#        230544
#        259715
#
# Disc length: 3864 seconds
#
# Revision: 4
# Processed by: cddbd v1.5.2PL0 Copyright (c) Steve Scherf et al.
# Submitted via: ExactAudioCopy v1.0b4
#
DISCID=970f160c
DTITLE=John McVey - Gone to Texas
DYEAR=2001
DGENRE=Texas Blues, Electric Blues
TTITLE0=(I gotta) mexican blackbird
TTITLE1=I don't stutter
TTITLE2=House on fire
TTITLE3=Crusin' for a bruisin'
TTITLE4=Gone to Texas
TTITLE5=Sweet little upsetter
TTITLE6=Shadows in my room
TTITLE7=Whuppit
TTITLE8=Baby one more kiss
TTITLE9=Call my job
TTITLE10=Don't throw your love on me so strong
TTITLE11=My baby's tired of working
EXTD=
EXTT0=
EXTT1=
EXTT2=
EXTT3=
EXTT4=
EXTT5=
EXTT6=
EXTT7=
EXTT8=
EXTT9=
EXTT10=
EXTT11=
PLAYORDER=
